<?xml version="1.0" encoding="iso-8859-1"?>
<!-- Generator: Adobe Illustrator 18.0.0, SVG Export Plug-In . SVG Version: 6.00 Build 0)  -->
<!DOCTYPE svg PUBLIC "-//W3C//DTD SVG 1.1//EN" "http://www.w3.org/Graphics/SVG/1.1/DTD/svg11.dtd">
<svg version="1.1" id="Layer_1" xmlns="http://www.w3.org/2000/svg" xmlns:xlink="http://www.w3.org/1999/xlink" x="0px" y="0px"
	 viewBox="0 0 200 200" style="enable-background:new 0 0 200 200;" xml:space="preserve">
<style type="text/css">
	.st0{fill:#ED1C24;}
	.st1{fill:none;stroke:#ED1C24;stroke-width:4;stroke-miterlimit:10;}
</style>
<g>
	<g>
		<path class="st0" d="M128.5,173v12h-57v-12H128.5 M132.5,169h-65v20h65V169L132.5,169z"/>
	</g>
</g>
<g>
	<path class="st0" d="M103.57,35.54l32.62,88.53l-18.26,37.87H82.07l-18.26-37.87l32.62-88.53H103.57 M106.36,31.54H93.64
		l-34.13,92.64l-0.04,0.11l20.08,41.66h40.88l20.04-41.56l0.05-0.1L106.36,31.54L106.36,31.54z"/>
</g>
<line class="st1" x1="100" y1="30" x2="100" y2="100"/>
<g>
	<path class="st0" d="M100,10c5.26,0,9.54,4.28,9.54,9.54s-4.28,9.54-9.54,9.54s-9.54-4.28-9.54-9.54S94.74,10,100,10 M100,6
		c-7.48,0-13.54,6.06-13.54,13.54S92.52,33.07,100,33.07s13.54-6.06,13.54-13.54S107.48,6,100,6L100,6z"/>
</g>
<g>
	<line class="st1" x1="152.33" y1="19.54" x2="110.67" y2="19.54"/>
	<line class="st1" x1="88.17" y1="19.54" x2="46.5" y2="19.54"/>
	<circle class="st0" cx="41" cy="19.2" r="8"/>
	<circle class="st0" cx="159" cy="19.2" r="8"/>
</g>
</svg>
