<?xml version="1.0" encoding="iso-8859-1"?>
<!-- Generator: Adobe Illustrator 18.0.0, SVG Export Plug-In . SVG Version: 6.00 Build 0)  -->
<!DOCTYPE svg PUBLIC "-//W3C//DTD SVG 1.1//EN" "http://www.w3.org/Graphics/SVG/1.1/DTD/svg11.dtd">
<svg version="1.1"  xmlns="http://www.w3.org/2000/svg" xmlns:xlink="http://www.w3.org/1999/xlink" x="0px" y="0px" viewBox="0 0 294.667 490.667" style="enable-background:new 0 0 294.667 490.667;" xml:space="preserve">
<style type="text/css">
	path {fill: #fff;}
</style>	 
	 
<g>
<path class="st0" d="M38.439,395.067c-1.794-1.92-3.711-3.672-6.123-4.805c-3.086-1.45-5.499-0.108-5.755,3.293
		c-0.236,3.133,0.739,5.996,2.774,8.298c3.054,3.454,6.261,6.786,9.586,9.979c1.504,1.444,3.371,2.598,5.639,2.649
		c3.001,0.004,4.818-3.108,3.159-5.868C44.9,403.922,42.219,399.112,38.439,395.067z"/>
	<path class="st0" d="M185.168,304.068c-2.396,0.126-4.508,0.716-4.827,3.585c-0.342,3.078,1.92,3.576,4.174,4.186
		c3.908,1.059,7.581,0.058,11.311-0.942c2.803-0.752,4.066-2.51,3.399-5.214c-0.668-2.712-3.121-2.599-5.194-2.248
		c-2.206,0.375-4.36,0.972-7.025,0.626C186.659,304.062,185.911,304.029,185.168,304.068z"/>
	<path class="st0" d="M151.096,83.421c5.018,1.804,10.188,2.297,15.131-0.328c2.203-1.17,2.928-3.276,2.453-5.714
		c-0.485-2.488-1.968-3.971-4.567-4.101c-1.487-0.074-2.98-0.013-3.846-0.013c-3.104,0.135-5.587,0.011-8.04,0.635
		c-2.229,0.566-3.392,1.869-3.561,4.152C148.499,80.31,148.826,82.605,151.096,83.421z"/>
	<path class="st0" d="M77.279,364.026c-1.49-2.185-3.201-4.119-5.679-5.244c-4.262-1.935-7.079-0.016-6.905,4.728
		c0.27,7.378,6.5,14.866,13.645,16.401c3.662,0.787,5.433-0.63,5.468-4.371c-0.031-0.872-0.002-1.778-0.649-2.467
		C80.656,370.407,79.305,366.998,77.279,364.026z"/>
	<path class="st0" d="M85.787,408.43c-3.643-1.991-6.479-0.904-8.375,2.806c-1.511,2.957-0.785,4.834,2.888,6.905
		c5.539,3.123,11.04,6.332,16.712,9.199c20.969,10.598,42.975,17.34,65.264,17.488c18.222-0.581,34.841-2.064,50.574-8.63
		c8.967-3.742,17.029-8.87,23.998-15.66c1.962-1.912,2.362-4.096,0.503-6.33c-1.843-2.215-3.671-1.208-5.587,0.049
		c-14.844,9.739-30.947,15.771-48.742,17.604c-29.61,3.05-57.713-1.364-84.018-15.649C94.515,413.775,90.272,410.881,85.787,408.43z
		"/>
	<path class="st0" d="M90.496,437.335c-7.966-4.191-15.612-8.9-23.052-13.961c-2.013-1.37-4.073-3.112-6.84-1.665
		c-2.23,1.166-3.806,2.915-4.154,5.422c-0.375,2.702,1.657,4.13,3.595,5.219c6.633,3.726,13.315,7.369,20.061,10.885
		c26.498,13.81,53.672,25.149,83.169,22.481c12.295,0.448,23.155-0.216,33.815-2.583c21.259-4.722,40.977-12.69,56.916-28.198
		c1.063-1.034,2.018-2.212,2.855-3.438c1.158-1.695,0.716-3.306-0.594-4.762c-1.383-1.537-3.068-1.605-4.779-0.809
		c-1.001,0.466-1.879,1.223-2.765,1.91c-20.092,15.594-43.325,23.603-68.124,26.945C148.748,459.075,118.779,452.215,90.496,437.335
		z"/>
	<path class="st0" d="M164.633,423.768c15.899-0.195,31.01-2.391,45.34-8.644c5.047-2.202,9.87-4.821,14.441-7.889
		c1.136-0.762,2.248-1.609,3.205-2.58c2.897-2.939,2.973-5.973,0.34-8.963c-2.13-2.419-4.59-2.515-7.838,0.426
		c-7.604,6.885-16.444,11.37-26.341,13.588c-14.513,3.253-29.236,3.854-44.006,2.153c-13.056-1.504-25.878-4.037-37.981-9.47
		c-3.036-1.363-4.989-0.228-5.913,2.987c-1.181,4.111,1.701,5.556,4.6,6.956C127.719,420.656,146.154,423.275,164.633,423.768z"/>
	<path class="st0" d="M289.248,148.121c-0.429-21.011-8.97-37.775-27.563-48.797c-17.82-10.564-36.659-19.164-56.195-26.291
		c-8.424-3.073-17.217-5.142-25.29-9.176c-12.176-6.084-14.861-14.47-14.023-28.143c0.08-1.297,0.213-2.609,0.075-3.899
		c-0.204-1.901-0.824-3.462-1.706-4.739c1.642-2.392,2.529-5.483,2.462-9.112c-0.154-8.264-4.494-11.841-14.226-11.723
		c-9.375,0.114-13.1,3.128-13.038,10.551c0.042,5.015,1.603,9.109,4.271,11.857c-0.102,0.299-0.186,0.608-0.248,0.928
		c-1.278,6.637-2.216,13.273-2.345,20.078c-0.171,8.998-1.861,13.627-10.59,16.995c-2.331,0.899-4.752,2.592-7.195,3.133
		c-13.965,3.092-26.952,9.385-39.038,16.876c-18.973,11.759-34.452,27.231-48.58,44.076c-8.1,9.657-12.103,21.003-12.293,33.439
		c-0.506,33.02-0.152,66.015,3.938,98.87c3.185,25.587,8.189,50.84,18.386,74.638c4.549,10.617,0.395,13.719-6.721,21.43
		c-2.575,2.791-5.223,5.568-8.154,7.983c-5.073,4.181-10.458,7.997-15.598,12.104c-13.671,10.924-12.751,22.791-2.274,36.751
		c13.288,17.706,29.489,32.332,48.844,43.549c32.362,18.755,67.969,25.503,106.613,27.408c28.35-0.458,56.172-8.087,81.467-24.024
		c9.402-5.923,18.185-12.672,25.664-20.858c5.326-5.83,8.489-11.156,4.459-17.932c-5.567-9.361-12.252-22.009-21.142-28.008
		c-6.596-3.203-8.824-9.89-6.367-16.741c3.726-10.39,4.991-13.045,10.581-22.676c14.717-25.358,21.642-52.613,19.63-81.78
		c-1.563-22.655-0.457-45.217,1.772-67.738C286.772,187.5,289.653,167.934,289.248,148.121z M151.989,11.579
		c5.768-0.07,8.34,2.05,8.431,6.948c0.098,5.235-3.113,8.623-8.137,8.586c-4.795-0.035-7.976-3.715-8.022-9.28
		C144.225,13.432,146.432,11.646,151.989,11.579z M277.456,209.898c-2.1,21.681-3.142,43.401-1.669,65.211
		c1.896,28.079-4.628,54.318-18.492,78.73c-5.265,9.272-9.133,19.118-12.642,29.121c-2.314,6.596-1.107,11.21,5.106,14.294
		c9.928,4.927,15.563,13.395,20.808,22.407c3.796,6.523,3.492,10.739-1.526,16.352c-7.045,7.881-15.32,14.378-24.176,20.08
		c-23.83,15.343-50.038,22.688-76.745,23.128c-36.404-1.834-69.947-8.331-100.433-26.386
		c-18.233-10.799-33.494-24.879-46.012-41.924c-9.87-13.439-8.953-20.307,3.926-30.823c4.842-3.953,9.914-7.627,14.693-11.652
		c2.761-2.325,5.255-4.999,7.681-7.686c6.703-7.424,8.833-14.967,4.548-25.188c-9.606-22.911-14.32-47.222-17.32-71.855
		c-3.853-31.63-4.186-63.394-3.71-95.183c0.179-11.972,3.951-22.894,11.581-32.191c13.309-16.216,27.89-31.111,45.763-42.432
		c11.385-7.211,23.62-12.358,36.775-15.335c2.301-0.521,4.582-1.239,6.778-2.105c8.223-3.242,12.49-9.521,12.651-18.184
		c0.122-6.551,1.005-12.94,2.209-19.329c0.92-4.884,3.294-7.14,7.313-6.912c4.455,0.252,7.419,3.397,7.626,8.155
		c0.054,1.248,0.005,2.505-0.07,3.754c-0.79,13.163,5.307,22.147,16.777,28.005c7.605,3.884,15.888,5.876,23.824,8.834
		c18.403,6.86,36.15,15.14,52.937,25.31c17.515,10.611,25.561,26.749,25.965,46.977
		C282.002,172.147,279.288,190.983,277.456,209.898z"/>
	<path class="st0" d="M65.496,389.12c-2.222-3.814-3.641-9.21-7.941-12.923c-0.909-0.785-2.123-1.324-3.286-1.688
		c-3.21-1.003-5.713,0.772-6.017,4.128c-0.506,5.587,6.422,14.982,11.919,16.165C63.78,395.578,65.563,394.048,65.496,389.12z"/>
	<path class="st0" d="M203.852,114.6c4.465,0.191,6.081-1.411,5.891-5.321c-0.176-3.614-1.924-6.242-5.36-7.35
		c-2.346-0.757-4.846-1.234-7.307-1.397c-4.945-0.328-7.288,3.393-5.096,7.853C194.538,113.589,199.63,113.801,203.852,114.6z"/>
	<path class="st0" d="M233.824,116.044c-4.394-0.722-7.201,1.19-8.457,5.034c-1.274,3.9-0.088,6.756,3.991,8.963
		c1.961,1.061,4.099,1.803,6.179,2.634c8.376,3.349,13.951,9.14,15.522,18.214c1.8,10.398,1.476,20.937,1.728,31.429
		c0.087,3.613,0.577,7.254-0.189,10.86c-0.501,2.358-1.912,3.741-4.347,3.949c-2.323,0.198-3.801-1.047-4.675-3.032
		c-0.447-1.015-0.666-2.141-0.91-3.235c-1.728-7.737-2.23-15.58-2.032-23.487c0.113-4.499,0.594-9.015-0.164-13.493
		c-0.754-4.457-3.316-7.537-7.651-8.85c-3.989-1.208-5.815,1.913-7.921,4.361c-2.446,2.844-4.755,5.83-7.415,8.459
		c-3.057,3.02-4.876,2.656-6.973-1.152c-1.201-2.181-2.126-4.518-3.108-6.813c-3.625-8.475-6.302-17.397-11.668-25.052
		c-2.904-4.143-6.075-8.054-10.644-11.009c0.759,10.28,3.495,19.565,7.73,28.437c3.232,6.771,7.01,13.236,10.89,19.65
		c2.284,3.776,0.815,7.503-3.042,7.923c-1.644,0.179-3.207-0.262-4.753-0.84c-4.282-1.603-8.46-1.457-12.734,0.36
		c-8.046,3.419-16.462,5.687-24.919,7.906c-8.669,2.275-17.899,1.922-26.202,5.807c-1.625,0.76-2.812,0.038-3.612-1.594
		c-3.618-7.373,0.168-14.441,8.202-14.828c5.142-0.248,10.223-0.888,15.25-1.828c5.623-1.051,11.35-1.821,16.627-4.277
		c2.913-1.356,4.924-3.516,3.898-6.79c-2.619-8.354-7.879-14.964-14.655-20.358c-2.128-1.694-4.008-0.331-5.594,1.274
		c-1.68,1.702-1.754,3.556-0.176,5.324c1.496,1.676,3.272,3.113,4.681,4.853c2.491,3.077,2.05,5.761-1.355,7.791
		c-3.358,2.002-7.077,3.092-10.993,3.438c-3.307,0.292-5.439-1.301-6.889-4.135c-2.409-4.71-1.48-9.314,0.669-13.706
		c8.767-17.918,20.779-32.641,40.1-39.999c2.585-0.984,4.474-2.4,3.563-5.564c-0.844-2.935-4.008-4.696-7.12-4.052
		c-2.763,0.572-4.995,2.27-7.38,3.592c-5.106,2.831-10.229,3.571-15.804,1.362c-4.226-1.675-8.712-2.14-13.267-1.636
		c-13.535,1.498-23.599,9.529-33.518,17.821c-0.46,0.384-0.729,1.006-1.059,1.535c-1.242,1.998-0.832,3.872,0.635,5.504
		c1.579,1.756,3.458,1.286,5.072,0.122c5.213-3.76,11.237-5.939,16.92-8.764c6.728-3.344,13.788-5.804,22.342-6.493
		c-5.949,5.481-10.369,10.873-13.883,16.955c-3.558,6.158-7.262,12.237-10.039,18.824c-2.371,5.623-6.491,9.07-12.796,9.431
		c-2.106,0.121-3.831,1.074-5.402,2.355c-4.263,3.476-7.96,7.601-12.459,10.818c-1.408,1.007-1.96,2.571-1.707,4.323
		c0.303,2.097,2.159,2.336,3.651,2.675c3.66,0.831,7.267,1.822,10.734,3.235c7.252,2.955,12.021,7.972,12.764,16.09
		c0.165,1.798,0.758,2.536,2.712,2.715c4.678,0.427,5.744,1.989,5.299,6.654c-0.344,3.609-0.848,7.233-0.803,10.844
		c0.319,25.424-1.255,50.788-2.276,76.169c-0.126,3.126-0.247,6.253-0.471,9.372c-0.221,3.082-1.568,5.356-4.987,5.403
		c-3.16,0.043-5.224-1.507-5.621-4.812c-0.238-1.981-0.601-3.974-0.565-5.955c0.147-8.132,0.414-16.263,0.659-24.393
		c0.499-16.509,1.04-33.018,1.5-49.528c0.114-4.092-1.478-6.098-4.72-6.418c-3.408-0.337-5.79,1.511-6.63,5.21
		c-0.503,2.214-0.483,4.45-0.308,6.718c0.655,8.482-1.015,16.364-6.02,23.44c-3.863,5.461-6.751,7.981-11.373,0.261
		c-2.509-4.19-6.778-4.034-9.896-0.231c-1.61,1.963-2.047,4.275-1.908,6.683c0.31,5.365,0.498,10.754,1.178,16.076
		c0.984,7.7,4.372,14.202,11.529,17.837c6.8,3.453,8.643,9.613,9.896,16.238c0.448,2.368-0.731,4.101-2.849,5.178
		c-3.451,1.754-6.502,0.668-8.803-1.922c-8.057-9.064-15.985-18.199-20.013-30.028c-4.572-13.426-7.573-27.137-1.439-40.524
		c5.412-11.811,5.71-23.003,1.677-35.146c-4.724-14.22-3.942-28.329,3.85-41.602c3.4-5.791,8.008-10.514,12.866-15.061
		c3.008-2.816,6.031-5.712,7.011-9.969c0.723-3.138-0.338-5.715-2.96-7.475c-2.784-1.87-4.667,0.098-6.468,1.899
		c-2.035,2.036-4.05,4.093-6.03,6.183c-17.024,17.971-26.333,38.835-24.728,64.089c0.848,13.342,2.818,26.693,1.462,40.089
		c-1.753,17.303,0.826,34.039,7.261,49.957c13.087,32.374,27.654,64.121,41.979,95.964c1.382,3.072,3.179,5.985,5.973,8.063
		c2.475,1.841,5.261,2.705,8.048,1.026c2.776-1.672,1.831-4.555,1.129-6.813c-1.467-4.716-0.877-9.398-0.537-14.124
		c0.185-2.572,1.329-4.223,4.005-4.626c2.743-0.413,4.332,1.048,5.087,3.39c1.338,4.149,3.031,8.179,3.91,12.488
		c1.044,5.123,1.811,10.379,4.823,14.858c1.009,1.501,1.954,3.916,3.844,3.59c2.145-0.37,3.101-2.634,3.35-4.93
		c0.215-1.983,0.46-3.982,0.938-5.913c0.554-2.237,1.844-3.785,4.466-3.726c2.442,0.055,3.637,1.55,4.166,3.622
		c0.461,1.805,0.616,3.69,0.885,5.543c0.841,5.801,3.725,8.247,9.599,8.141c8.142-0.147,16.223-0.974,24.253-2.274
		c23.961-3.878,42.014-15.933,52.294-38.373c6.076-13.263,11.736-26.715,17.701-40.029c3.228-7.205,5.891-14.547,7.355-22.341
		c1.951-10.391,0.808-20.635-0.61-30.966c-2.054-14.961-1.227-29.931,0.377-44.917c1.968-18.395,3.557-36.832,5.178-55.263
		c0.996-11.326,0.742-22.534-5.108-32.804C254.669,123.495,245.394,117.944,233.824,116.044z M90.558,336.717
		c-2.31,0.312-4.136-0.628-5.558-2.396c-1.418-1.763-0.845-3.471,0.173-5.193c3.122-5.281,6.152-10.64,11.508-14.078
		c2.945-1.891,4.102-1.403,4.819,2.085c0.426,2.073,0.603,4.198,0.892,6.299C102.246,330.621,97.751,335.746,90.558,336.717z
		 M203.628,275.579c11.244-1.172,11.838-6.844,7.824-15.547c-3.15-6.831-5.802-13.796-5.468-21.521
		c0.108-2.506,0.534-4.951,1.358-7.315c0.538-1.543,1.55-2.549,3.327-2.482c1.853,0.07,3.152,0.996,3.527,2.779
		c0.357,1.694,0.527,3.456,0.541,5.19c0.061,7.935,2.097,15.355,6.317,22.012c3.657,5.769,6.433,11.527,2.395,18.078
		c-4.34,7.04-11.156,9.58-19.124,9.628c-0.125,0.001-0.249-0.018-0.374-0.028c-2.972-0.244-6.698,0.755-7.077-3.979
		C196.623,279.248,199.589,276,203.628,275.579z M197.071,298.44c2.809,0.764,5.432-0.468,8.155-0.618
		c5.761-0.316,8.477,3.15,6.772,8.771c-2.267,7.476-13.197,14.729-22.128,14.684c-5.743,0.108-10.398-2.371-14.358-6.264
		c-3.047-2.996-5.419-6.552-7.511-10.258c-1.731-3.067-0.938-5.547,2.374-5.885C179.241,297.964,188.144,296.012,197.071,298.44z
		 M197.119,331.907c-2.513,6.63-6.563,12.321-11.896,16.969c-2.563,2.234-4.35,0.152-5.694-1.934
		c-1.201-1.864-0.793-4.109-1.084-5.867c-0.263-10.608,4.804-15.291,15.099-14.282C196.638,327.095,198.209,329.031,197.119,331.907
		z M152.349,297.836c-2.272,0.823-4.793,3.129-7.208,0.524c-2.416-2.606-0.682-5.447,0.28-8.049c1.441-3.9,4.44-6.26,8.391-7.339
		c4.436-1.21,8.912-2.271,13.364-3.421c4.348-1.124,8.557-2.583,12.547-4.71c3.883-2.07,7.405,0.225,7.253,4.577
		c-0.773,4.457-3.792,6.802-7.751,8.296C170.268,291.094,161.348,294.574,152.349,297.836z M154.682,325.815
		c-0.91,1.766-2.348,2.042-4.116,1.513c-4.046-1.212-5.983-4.26-7.024-8.066c-0.629-2.299-1.172-4.621-0.794-6.628
		c0.1-6.025,1.73-6.932,6.682-4.126C154.509,311.385,157.328,320.679,154.682,325.815z M153.439,238.057
		c0.918-2.788,3.029-4.374,5.816-4.58c5.207-0.384,10.434-0.501,14.659-1.308c9.691,0.255,10.893,1.98,8.046,10.206
		c-3.288,9.499-9.613,12.238-18.683,8.037c-2.958-1.37-5.604-3.215-7.884-5.576C153.527,242.904,152.557,240.734,153.439,238.057z
		 M132.702,223.71c0.782-4.728,2.379-9.199,5.471-12.942c2.758-3.339,6.445-4.766,10.697-3.892
		c4.207,0.865,8.397,0.891,12.637,0.635c6.61-0.399,13.245-0.517,19.83-1.164c9.946-0.978,11.889,3.771,12.139,11.776
		c0.021,5.627-2.312,7.265-8.083,6.673c-9.419-0.967-18.781-2.713-28.336-2.147c-6.162,0.365-11.706,2.276-16.741,5.757
		c-1.705,1.179-3.478,2.307-5.464,0.971C132.908,228.07,132.341,225.894,132.702,223.71z M249.447,280.906
		c-10.108,19.756-17.505,40.483-22.787,61.993c-1.473,5.999-3.988,11.52-7.013,16.855c-2.706,4.772-5.566,9.469-7.302,14.726
		c-0.668,2.024-2.09,3.035-4.251,2.941c-6.402-0.28-12.686,0.908-18.982,1.717c-4.849,0.623-8.909,2.976-11.957,7.01
		c-2.873,3.803-5.103,3.825-8.004,0.126c-4.224-5.383-9.863-8.818-15.939-11.518c-7.119-3.164-13.572-7.402-20.037-11.643
		c-2.189-1.436-4.6-3.017-4.123-6.139c0.524-3.428,2.943-5.443,6.083-6.481c5.422-1.792,10.115,0.283,14.409,3.299
		c6.487,4.556,13.404,8.23,20.92,10.702c6.772,2.227,13.698,3.707,20.859,4.19c9.447,0.636,15.811-3.495,19.615-11.939
		c4.064-9.021,6.548-18.575,9.176-28.061c5.33-19.244,10.888-38.373,20.225-56.186c3.561-6.794,5.017-14.051,3.195-21.781
		c-1.225-5.196-2.61-6.168-7.92-4.728c-6.298,1.708-11.311-0.404-13.298-5.601c-1.303-3.409-0.562-5.267,2.926-6.307
		c3.225-0.961,6.572-1.501,9.838-2.335c4.692-1.198,6.053-3.008,5.499-6.953c-0.571-4.065-3.506-4.32-6.689-4.245
		c-1.375,0.033-2.752,0.005-4.128,0.005c-1.876-0.001-3.753,0.003-5.629-0.001c-3.322-0.007-5.144-1.754-5.4-4.979
		c-0.243-3.067,0.905-5.633,4.117-6.241c7.999-1.515,16.1-2.283,24.228-1.417c4.376,0.466,5.99,3.168,4.863,7.862
		c-1.897,7.901-4.184,15.712-1.396,23.905c1.407,4.133,2.291,8.407,2.893,12.754C254.808,262.324,254.028,271.953,249.447,280.906z"
		/>
</g>
</svg>
