<?xml version="1.0" encoding="iso-8859-1"?>
<!-- Generator: Adobe Illustrator 18.0.0, SVG Export Plug-In . SVG Version: 6.00 Build 0)  -->
<!DOCTYPE svg PUBLIC "-//W3C//DTD SVG 1.1//EN" "http://www.w3.org/Graphics/SVG/1.1/DTD/svg11.dtd">
<svg version="1.1" id="Layer_1" xmlns="http://www.w3.org/2000/svg" xmlns:xlink="http://www.w3.org/1999/xlink" x="0px" y="0px"
	 viewBox="0 0 200 200" style="enable-background:new 0 0 200 200;" xml:space="preserve">
<style type="text/css">
	.st0{fill:#ED1C24;}
	.st1{fill:none;stroke:#ED1C24;stroke-width:4;stroke-miterlimit:10;}
</style>
<polygon class="st1" points="151.97,99.67 187.43,97.5 187.43,167.86 151.97,164.26 149.17,160.68 149.17,102.9 "/>
<path class="st1" d="M74.59,82.26v20.46H24.02c0,0-5.72,8.26-5.38,25.67c0.36,17.41,5.38,24.59,5.38,24.59h16.83l6.1,7.88h61.02
	v-6.14v-1.74v-50.26h-3.59L89.32,64.3h-1.58V48.51h7v1.26c1.64,6.96,10.65,7.15,11.68,7.15h0.07l68-1.33
	c0.38,0,8.73-0.13,9.19-10.48v-3.25c-0.45-10.43-8.83-10.54-9.2-10.54L106.49,30h-0.01c-1.13,0-10.11,0.2-11.71,6.78v1.62H71.53
	v25.9H53.41l-17.93-7.35H16.2c0,0-2.4,4.66-2.19,14.41c0.21,9.75,2.19,13.93,2.19,13.93h18.9l19.38-3.02H74.59z"/>
<path class="st1" d="M118.17,108.27v46.31h7.28l7.58,6.11h16.13V102.9h-16.13l-7.58,5.37H118.17z"/>
</svg>
